<svg xmlns="http://www.w3.org/2000/svg" viewBox="0 0 24 24"><path d="M12 24a.493.493 0 0 1-.233-.058l-9.5-5a.501.501 0 0 1-.262-.372l-2-14a.499.499 0 0 1 .331-.542l11.5-4a.498.498 0 0 1 .328 0l11.5 4a.5.5 0 0 1 .331.543l-2 14a.501.501 0 0 1-.262.372l-9.5 5A.504.504 0 0 1 12 24zm-9.041-5.824L12 22.935l9.041-4.759 1.906-13.339L12 1.029 1.053 4.837l1.906 13.339z"/><path d="M18.5 19h-3a.5.5 0 0 1-.468-.324L13.653 15h-3.307l-1.378 3.676A.5.5 0 0 1 8.5 19H5.53a.501.501 0 0 1-.464-.688l6.47-16A.502.502 0 0 1 12 2c.204 0 .387.123.463.312l6.5 16A.5.5 0 0 1 18.5 19zm-2.653-1h1.911L12.001 3.831 6.272 18h1.881l1.378-3.676A.502.502 0 0 1 10 14h4a.5.5 0 0 1 .468.324L15.847 18z"/><path d="M13.541 13H10.5a.5.5 0 0 1-.479-.644l1.5-5A.5.5 0 0 1 11.998 7H12a.5.5 0 0 1 .478.353l1.541 5a.5.5 0 0 1-.478.647zm-2.369-1h1.692l-.857-2.781L11.172 12z"/></svg>